<svg xmlns="http://www.w3.org/2000/svg" width="130" height="190"><defs><linearGradient id="s"><stop stop-color="#d6d8d2"/><stop offset=".45" stop-color="#777e82"/><stop offset="1" stop-color="#333a40"/></linearGradient></defs><ellipse cx="64" cy="178" rx="42" ry="10" fill="#000" opacity=".34"/><path d="M38 165 44 78h42l9 87z" fill="#28333e" stroke="#14191e" stroke-width="6"/><path d="M41 86h49l-5 48H47z" fill="url(#s)" stroke="#42484c" stroke-width="5"/><path d="m47 88 17 18 20-18-4 35H51z" fill="#254b72"/><circle cx="65" cy="48" r="21" fill="#c79370"/><path d="M42 48Q45 10 66 10q23 1 25 38l-11-12H52z" fill="url(#s)" stroke="#454a4d" stroke-width="5"/><path d="M31 84v81m68-81v81" stroke="#b8bab5" stroke-width="9"/><path d="M105 66v104" stroke="#684d2e" stroke-width="6"/><path d="m105 57-16 30h32z" fill="#c4c8c4" stroke="#555" stroke-width="3"/><path d="M43 79 32 99l15 8 17-23zm43 0 12 20-15 8-17-23z" fill="url(#s)" stroke="#555" stroke-width="3"/><circle cx="65" cy="112" r="8" fill="#c8a65b"/></svg>