<svg xmlns="http://www.w3.org/2000/svg" width="96" height="112" viewBox="0 0 48 56" shape-rendering="geometricPrecision"><defs><filter id="s"><feDropShadow dx="0" dy="2" stdDeviation="1" flood-opacity=".55"/></filter></defs><g filter="url(#s)"><ellipse cx="24" cy="51" rx="13" ry="3" fill="#111" opacity=".5"/><path d="M16 24 13 39l6 3 2-14h8l2 14 6-3-5-15z" fill="#263b2d"/><path d="M18 22h12l4 9-5 6H19l-5-6z" fill="#42633f"/><path d="m17 24 14 10-3 4-14-11z" fill="#765032"/><circle cx="24" cy="15" r="8" fill="#d8a579"/><path d="M16 15q1-11 8-11 7 0 9 10l-5-3-5 2-4-2z" fill="#3a2c25"/><rect x="19" y="40" width="5" height="11" rx="2" fill="#282820"/><rect x="26" y="40" width="5" height="11" rx="2" fill="#282820"/><path d="M37 13q9 13 0 27" fill="none" stroke="#b77b38" stroke-width="2"/><path d="M37 13v27" stroke="#e6d5ad" stroke-width=".8"/><path d="m11 17 7-8 3 3-7 8z" fill="#7a5130"/><path d="M13 13h2v16h-2z" fill="#d6c18c"/></g></svg>